<svg id="visual" viewBox="0 0 900 600" width="900" height="600" xmlns="http://www.w3.org/2000/svg" xmlns:xlink="http://www.w3.org/1999/xlink" version="1.1"><rect x="0" y="0" width="900" height="600" fill="#ffffff"></rect><path d="M0 353L21.5 353C43 353 86 353 128.8 356.8C171.7 360.7 214.3 368.3 257.2 367.5C300 366.7 343 357.3 385.8 359.2C428.7 361 471.3 374 514.2 370.5C557 367 600 347 642.8 341.3C685.7 335.7 728.3 344.3 771.2 347.2C814 350 857 347 878.5 345.5L900 344L900 0L878.5 0C857 0 814 0 771.2 0C728.3 0 685.7 0 642.8 0C600 0 557 0 514.2 0C471.3 0 428.7 0 385.8 0C343 0 300 0 257.2 0C214.3 0 171.7 0 128.8 0C86 0 43 0 21.5 0L0 0Z" fill="#f7d40f"></path><path d="M0 317L21.5 318.2C43 319.3 86 321.7 128.8 325.5C171.7 329.3 214.3 334.7 257.2 335.3C300 336 343 332 385.8 327.2C428.7 322.3 471.3 316.7 514.2 317.7C557 318.7 600 326.3 642.8 322.8C685.7 319.3 728.3 304.7 771.2 301.5C814 298.3 857 306.7 878.5 310.8L900 315L900 0L878.5 0C857 0 814 0 771.2 0C728.3 0 685.7 0 642.8 0C600 0 557 0 514.2 0C471.3 0 428.7 0 385.8 0C343 0 300 0 257.2 0C214.3 0 171.7 0 128.8 0C86 0 43 0 21.5 0L0 0Z" fill="#f9ce19"></path><path d="M0 272L21.5 276C43 280 86 288 128.8 282.5C171.7 277 214.3 258 257.2 249.7C300 241.3 343 243.7 385.8 252.8C428.7 262 471.3 278 514.2 282.8C557 287.7 600 281.3 642.8 274.3C685.7 267.3 728.3 259.7 771.2 257.8C814 256 857 260 878.5 262L900 264L900 0L878.5 0C857 0 814 0 771.2 0C728.3 0 685.7 0 642.8 0C600 0 557 0 514.2 0C471.3 0 428.7 0 385.8 0C343 0 300 0 257.2 0C214.3 0 171.7 0 128.8 0C86 0 43 0 21.5 0L0 0Z" fill="#fbc920"></path><path d="M0 206L21.5 204.3C43 202.7 86 199.3 128.8 205.2C171.7 211 214.3 226 257.2 232.8C300 239.7 343 238.3 385.8 235.2C428.7 232 471.3 227 514.2 223.3C557 219.7 600 217.3 642.8 218.2C685.7 219 728.3 223 771.2 220.8C814 218.7 857 210.3 878.5 206.2L900 202L900 0L878.5 0C857 0 814 0 771.2 0C728.3 0 685.7 0 642.8 0C600 0 557 0 514.2 0C471.3 0 428.7 0 385.8 0C343 0 300 0 257.2 0C214.3 0 171.7 0 128.8 0C86 0 43 0 21.5 0L0 0Z" fill="#fcc427"></path><path d="M0 165L21.5 169.7C43 174.3 86 183.7 128.8 185.7C171.7 187.7 214.3 182.3 257.2 182.7C300 183 343 189 385.8 189.2C428.7 189.3 471.3 183.7 514.2 176.7C557 169.7 600 161.3 642.8 161.2C685.7 161 728.3 169 771.2 169.5C814 170 857 163 878.5 159.5L900 156L900 0L878.5 0C857 0 814 0 771.2 0C728.3 0 685.7 0 642.8 0C600 0 557 0 514.2 0C471.3 0 428.7 0 385.8 0C343 0 300 0 257.2 0C214.3 0 171.7 0 128.8 0C86 0 43 0 21.5 0L0 0Z" fill="#fcbe2d"></path><path d="M0 113L21.5 115.3C43 117.7 86 122.3 128.8 121.8C171.7 121.3 214.3 115.7 257.2 120.8C300 126 343 142 385.8 141.8C428.7 141.7 471.3 125.3 514.2 119.8C557 114.3 600 119.7 642.8 126.2C685.7 132.7 728.3 140.3 771.2 143.7C814 147 857 146 878.5 145.5L900 145L900 0L878.5 0C857 0 814 0 771.2 0C728.3 0 685.7 0 642.8 0C600 0 557 0 514.2 0C471.3 0 428.7 0 385.8 0C343 0 300 0 257.2 0C214.3 0 171.7 0 128.8 0C86 0 43 0 21.5 0L0 0Z" fill="#fdb932"></path><path d="M0 90L21.5 87.7C43 85.3 86 80.7 128.8 79.8C171.7 79 214.3 82 257.2 84.8C300 87.7 343 90.3 385.8 88C428.7 85.7 471.3 78.3 514.2 81.8C557 85.3 600 99.7 642.8 104.3C685.7 109 728.3 104 771.2 100C814 96 857 93 878.5 91.5L900 90L900 0L878.5 0C857 0 814 0 771.2 0C728.3 0 685.7 0 642.8 0C600 0 557 0 514.2 0C471.3 0 428.7 0 385.8 0C343 0 300 0 257.2 0C214.3 0 171.7 0 128.8 0C86 0 43 0 21.5 0L0 0Z" fill="#fdb437"></path><path d="M0 29L21.5 28.8C43 28.7 86 28.3 128.8 33.2C171.7 38 214.3 48 257.2 50.7C300 53.3 343 48.7 385.8 44.8C428.7 41 471.3 38 514.2 36.3C557 34.7 600 34.3 642.8 37.2C685.7 40 728.3 46 771.2 49.2C814 52.3 857 52.7 878.5 52.8L900 53L900 0L878.5 0C857 0 814 0 771.2 0C728.3 0 685.7 0 642.8 0C600 0 557 0 514.2 0C471.3 0 428.7 0 385.8 0C343 0 300 0 257.2 0C214.3 0 171.7 0 128.8 0C86 0 43 0 21.5 0L0 0Z" fill="#fcaf3c"></path></svg>